<svg xmlns="http://www.w3.org/2000/svg" width="24" height="25" viewBox="0 0 24 25" fill="none">
<path d="M2 12.8833C2 9.11206 2 7.22645 3.17157 6.05487C4.34315 4.8833 6.22876 4.8833 10 4.8833H14C17.7712 4.8833 19.6569 4.8833 20.8284 6.05487C22 7.22645 22 9.11206 22 12.8833C22 16.6545 22 18.5402 20.8284 19.7117C19.6569 20.8833 17.7712 20.8833 14 20.8833H10C6.22876 20.8833 4.34315 20.8833 3.17157 19.7117C2 18.5402 2 16.6545 2 12.8833Z" stroke="black" stroke-width="1.5"/>
<path d="M6 8.8833L8.1589 10.6824C9.99553 12.2129 10.9139 12.9782 12 12.9782C13.0861 12.9782 14.0045 12.2129 15.8411 10.6824L18 8.8833" stroke="black" stroke-width="1.5" stroke-linecap="round"/>
</svg>